#N canvas 409 43 587 746 12;
#X msg 271 28 rando 2 123;
#X msg 271 53 airy_ai 2.5;
#X msg 272 76 airy_bi 1.5;
#X floatatom 150 196 5 0 0 0 - - - 0;
#X msg 8 111 clausen 2.2;
#X msg 8 85 dawson 1;
#X obj 12 24 hsl 128 15 0 127 0 0 empty empty empty -2 -8 0 10 #fcfcfc
#000000 #000000 0 1;
#X msg 9 59 debye_1 \$1;
#X floatatom 161 70 5 0 0 0 - - - 0;
#X obj 150 143 psl;
#X floatatom 149 350 5 0 0 0 - - - 0;
#X obj 149 380 psl rando;
#X msg 254 332 5 122;
#X obj 149 413 print;
#X msg 250 288 helo 1.5 2.4;
#X listbox 201 414 33 0 0 0 - - - 0;
#X msg 19 267 list sa 1.5 2.5;
#X msg 252 251 rando 4 123;
#X msg 231 219 list 1.5 2.5;
#X msg 20 304 list 5 127;
#X obj 232 526 psl hypot3;
#X listbox 232 572 20 0 0 0 - - - 0;
#X msg 150 24 bessel_j0 0.5;
#X obj 39 536 gsl hypot3;
#X msg 39 476 2 3 4;
#X floatatom 39 578 5 0 0 0 - - - 0;
#X text 12 610 In this case we use the 'gsl' alias name of the external.
, f 19;
#X obj 266 653 psl hypot;
#X floatatom 266 697 5 0 0 0 - - - 0;
#X floatatom 266 605 5 0 0 0 - - - 0;
#X floatatom 326 604 5 0 0 0 - - - 0;
#X obj 434 633 psl add;
#X floatatom 434 589 5 0 0 0 - - - 0;
#X floatatom 480 588 5 0 0 0 - - - 0;
#X floatatom 434 697 5 0 0 0 - - - 0;
#X floatatom 232 467 5 0 0 0 - - - 0;
#X floatatom 274 467 5 0 0 0 - - - 0;
#X floatatom 316 467 5 0 0 0 - - - 0;
#N canvas 693 331 387 452 list2sym 0;
#X obj 23 17 inlet;
#X obj 23 306 outlet;
#X obj 210 19 text define \$0-buffer;
#X obj 55 103 text set \$0-buffer;
#X obj 23 76 t b l;
#X msg 23 133 0;
#X obj 23 183 list trim;
#X obj 23 157 text get \$0-buffer;
#X obj 23 234 fudiformat -u;
#X obj 23 258 list tosymbol;
#X obj 23 47 list prepend;
#X connect 0 0 10 0;
#X connect 4 0 5 0;
#X connect 4 1 3 0;
#X connect 5 0 7 0;
#X connect 6 0 8 0;
#X connect 7 0 6 0;
#X connect 8 0 9 0;
#X connect 9 0 1 0;
#X connect 10 0 4 0;
#X restore 450 99 pd list2sym;
#X obj 450 126 print;
#X msg 450 74 hypo(10\\\,5);
#X msg 272 100 symbol hypot(10\\\,5) \;;
#X connect 0 0 9 0;
#X connect 1 0 9 0;
#X connect 2 0 9 0;
#X connect 4 0 9 0;
#X connect 5 0 9 0;
#X connect 6 0 7 0;
#X connect 7 0 9 0;
#X connect 8 0 9 0;
#X connect 9 0 3 0;
#X connect 10 0 11 0;
#X connect 11 0 15 0;
#X connect 11 0 13 0;
#X connect 12 0 11 0;
#X connect 14 0 11 0;
#X connect 16 0 11 0;
#X connect 17 0 11 0;
#X connect 18 0 11 0;
#X connect 19 0 11 0;
#X connect 20 0 21 0;
#X connect 22 0 9 0;
#X connect 23 0 25 0;
#X connect 24 0 23 0;
#X connect 27 0 28 0;
#X connect 29 0 27 0;
#X connect 30 0 27 1;
#X connect 31 0 34 0;
#X connect 32 0 31 0;
#X connect 33 0 31 1;
#X connect 35 0 20 0;
#X connect 36 0 20 1;
#X connect 37 0 20 2;
#X connect 38 0 9 0;
#X connect 38 0 39 0;
#X connect 40 0 38 0;
#X connect 41 0 9 0;
