#N canvas 409 43 478 288 12;
#X floatatom 150 196 5 0 0 0 - - - 0;
#X msg 9 116 clausen 2.2;
#X obj 150 143 psl;
#N canvas 693 331 387 452 list2sym 0;
#X obj 23 17 inlet;
#X obj 23 306 outlet;
#X obj 210 19 text define \$0-buffer;
#X obj 55 103 text set \$0-buffer;
#X obj 23 76 t b l;
#X msg 23 133 0;
#X obj 23 183 list trim;
#X obj 23 157 text get \$0-buffer;
#X obj 23 234 fudiformat -u;
#X obj 23 258 list tosymbol;
#X obj 23 47 list prepend;
#X connect 0 0 10 0;
#X connect 4 0 5 0;
#X connect 4 1 3 0;
#X connect 5 0 7 0;
#X connect 6 0 8 0;
#X connect 7 0 6 0;
#X connect 8 0 9 0;
#X connect 9 0 1 0;
#X connect 10 0 4 0;
#X restore 346 107 pd list2sym;
#X obj 346 134 print;
#X msg 346 82 hypot(10\\\,5);
#X msg 19 56 symbol hypot(10\\\,5);
#X msg 179 9 hypot(10\\\,5);
#X msg 229 40 hypot(10\\\,5);
#X obj 222 81 symbol;
#X connect 1 0 2 0;
#X connect 2 0 0 0;
#X connect 3 0 2 0;
#X connect 3 0 4 0;
#X connect 5 0 3 0;
#X connect 6 0 2 0;
#X connect 7 0 2 0;
#X connect 8 0 9 0;
#X connect 9 0 2 0;
